<svg width="28" height="28" viewBox="0 0 28 28" fill="none" xmlns="http://www.w3.org/2000/svg">
<g id="Iconly/Bold/Graph">
<g id="Graph">
<path id="Graph_2" fill-rule="evenodd" clip-rule="evenodd" d="M14.3809 2.57792C14.5672 2.41069 14.8136 2.32303 15.0659 2.33428C20.3985 2.49391 24.8552 6.36508 25.6629 11.539C25.668 11.5699 25.668 11.6014 25.6629 11.6323C25.6803 11.8771 25.5976 12.1187 25.433 12.3035C25.2684 12.4883 25.0356 12.6011 24.786 12.6171L15.8266 13.2079C15.5303 13.2342 15.2364 13.1367 15.0172 12.9394C14.798 12.7421 14.6737 12.4632 14.675 12.1714L14.0727 3.37085V3.22573C14.0837 2.97822 14.1946 2.74515 14.3809 2.57792ZM13.7663 15.5091L21.5318 15.0116L21.5846 15.0323C21.9181 15.0378 22.2357 15.173 22.4675 15.4082C22.6994 15.6434 22.8264 15.9594 22.8208 16.2866C22.5148 20.7457 19.2456 24.4714 14.7966 25.4313C10.3476 26.3911 5.78691 24.3547 3.60245 20.4329C2.96013 19.3033 2.55423 18.0593 2.40857 16.7738C2.35208 16.3928 2.32734 16.008 2.33461 15.6232C2.34934 10.8816 5.7252 6.7889 10.4488 5.78607C11.0206 5.67904 11.5939 5.96455 11.8434 6.48058C11.9055 6.57422 11.9552 6.67523 11.9913 6.78119C12.0799 8.14808 12.1717 9.50204 12.2632 10.8503C12.3354 11.915 12.4074 12.9761 12.4773 14.0372C12.4737 14.2872 12.513 14.536 12.5935 14.7732C12.7831 15.2399 13.255 15.5359 13.7663 15.5091Z" fill="#75578E"/>
</g>
</g>
</svg>
